inDegrees=no
DataType=double
version=3
OpenSimVersion=4.4-2022-10-11-798caa840
endheader
time	elv_angle	shoulder_elv	shoulder_rot	elbow_flexion	pro_sup	deviation	flexion
3.6031277150	0.2616344683	0.6475308922	0.2754047035	1.9150522062	0.0000000000	0.0000000000	0.0000000000
3.6072980017	0.2604880332	0.6469878439	0.2741979297	1.9135437389	0.0000000000	0.0000000000	0.0000000000
3.6114682884	0.2593337755	0.6464410903	0.2729829216	1.9120249788	0.0000000000	0.0000000000	0.0000000000
3.6156385752	0.2581717804	0.6458906716	0.2717597688	1.9104960378	0.0000000000	0.0000000000	0.0000000000
3.6198088619	0.2570021337	0.6453366284	0.2705285618	1.9089570290	0.0000000000	0.0000000000	0.0000000000
3.6239791486	0.2558249227	0.6447790021	0.2692893923	1.9074080671	0.0000000000	0.0000000000	0.0000000000
3.6281494353	0.2546402355	0.6442178345	0.2680423531	1.9058492682	0.0000000000	0.0000000000	0.0000000000
3.6323197220	0.2534481614	0.6436531679	0.2667875383	1.9042807497	0.0000000000	0.0000000000	0.0000000000
3.6364900087	0.2522487909	0.6430850450	0.2655250430	1.9027026306	0.0000000000	0.0000000000	0.0000000000
3.6406602954	0.2510422152	0.6425135091	0.2642549633	1.9011150310	0.0000000000	0.0000000000	0.0000000000
3.6448305821	0.2498285267	0.6419386040	0.2629773966	1.8995180725	0.0000000000	0.0000000000	0.0000000000
3.6490008688	0.2486078190	0.6413603740	0.2616924410	1.8979118780	0.0000000000	0.0000000000	0.0000000000
3.6531711555	0.2473801862	0.6407788638	0.2604001960	1.8962965718	0.0000000000	0.0000000000	0.0000000000
3.6573414422	0.2461457239	0.6401941185	0.2591007620	1.8946722793	0.0000000000	0.0000000000	0.0000000000
3.6615117289	0.2449045283	0.6396061837	0.2577942403	1.8930391272	0.0000000000	0.0000000000	0.0000000000
3.6656820156	0.2436566966	0.6390151056	0.2564807333	1.8913972434	0.0000000000	0.0000000000	0.0000000000
3.6698523023	0.2424023271	0.6384209306	0.2551603443	1.8897467572	0.0000000000	0.0000000000	0.0000000000
3.6740225891	0.2411415189	0.6378237056	0.2538331777	1.8880877990	0.0000000000	0.0000000000	0.0000000000
3.6781928758	0.2398743718	0.6372234780	0.2524993387	1.8864205002	0.0000000000	0.0000000000	0.0000000000
3.6823631625	0.2386009868	0.6366202956	0.2511589334	1.8847449936	0.0000000000	0.0000000000	0.0000000000
3.6865334492	0.2373214655	0.6360142066	0.2498120689	1.8830614130	0.0000000000	0.0000000000	0.0000000000
3.6907037359	0.2360359105	0.6354052595	0.2484588532	1.8813698933	0.0000000000	0.0000000000	0.0000000000
3.6948740226	0.2347444253	0.6347935033	0.2470993950	1.8796705705	0.0000000000	0.0000000000	0.0000000000
3.6990443093	0.2334471138	0.6341789874	0.2457338040	1.8779635819	0.0000000000	0.0000000000	0.0000000000
3.7032145960	0.2321440813	0.6335617615	0.2443621908	1.8762490653	0.0000000000	0.0000000000	0.0000000000
3.7073848827	0.2308354334	0.6329418756	0.2429846667	1.8745271602	0.0000000000	0.0000000000	0.0000000000
3.7115551694	0.2295212766	0.6323193803	0.2416013437	1.8727980065	0.0000000000	0.0000000000	0.0000000000
3.7157254561	0.2282017182	0.6316943263	0.2402123349	1.8710617454	0.0000000000	0.0000000000	0.0000000000
3.7198957428	0.2268768662	0.6310667648	0.2388177539	1.8693185191	0.0000000000	0.0000000000	0.0000000000
3.7240660295	0.2255468293	0.6304367474	0.2374177151	1.8675684706	0.0000000000	0.0000000000	0.0000000000
3.7282363162	0.2242117170	0.6298043258	0.2360123337	1.8658117439	0.0000000000	0.0000000000	0.0000000000
3.7324066030	0.2228716393	0.6291695521	0.2346017256	1.8640484838	0.0000000000	0.0000000000	0.0000000000
3.7365768897	0.2215267070	0.6285324789	0.2331860074	1.8622788360	0.0000000000	0.0000000000	0.0000000000
3.7407471764	0.2201770315	0.6278931589	0.2317652963	1.8605029472	0.0000000000	0.0000000000	0.0000000000
3.7449174631	0.2188227249	0.6272516453	0.2303397104	1.8587209648	0.0000000000	0.0000000000	0.0000000000
3.7490877498	0.2174638997	0.6266079913	0.2289093681	1.8569330370	0.0000000000	0.0000000000	0.0000000000
3.7532580365	0.2161006694	0.6259622506	0.2274743888	1.8551393128	0.0000000000	0.0000000000	0.0000000000
3.7574283232	0.2147331477	0.6253144771	0.2260348923	1.8533399421	0.0000000000	0.0000000000	0.0000000000
3.7615986099	0.2133614490	0.6246647251	0.2245909990	1.8515350755	0.0000000000	0.0000000000	0.0000000000
3.7657688966	0.2119856884	0.6240130490	0.2231428299	1.8497248641	0.0000000000	0.0000000000	0.0000000000
3.7699391833	0.2106059813	0.6233595036	0.2216905066	1.8479094601	0.0000000000	0.0000000000	0.0000000000
3.7741094700	0.2092224438	0.6227041437	0.2202341514	1.8460890160	0.0000000000	0.0000000000	0.0000000000
3.7782797567	0.2078351924	0.6220470246	0.2187738867	1.8442636852	0.0000000000	0.0000000000	0.0000000000
3.7824500434	0.2064443442	0.6213882018	0.2173098360	1.8424336218	0.0000000000	0.0000000000	0.0000000000
3.7866203301	0.2050500166	0.6207277308	0.2158421227	1.8405989802	0.0000000000	0.0000000000	0.0000000000
3.7907906169	0.2036523276	0.6200656676	0.2143708712	1.8387599158	0.0000000000	0.0000000000	0.0000000000
3.7949609036	0.2022513957	0.6194020683	0.2128962060	1.8369165843	0.0000000000	0.0000000000	0.0000000000
3.7991311903	0.2008473396	0.6187369891	0.2114182522	1.8350691421	0.0000000000	0.0000000000	0.0000000000
